<svg width="181" height="47" viewBox="0 0 181 47" fill="none" xmlns="http://www.w3.org/2000/svg">
<path d="M18.0372 46.5154C8.51096 46.5616 1.02788 39.2102 0.955118 29.746C0.882355 20.2819 8.3348 12.7979 17.8169 12.7575C27.2627 12.7171 34.9086 20.1781 34.9986 29.523C35.0885 38.868 27.481 46.4693 18.0372 46.5154ZM27.1306 29.7614C27.1765 24.7208 23.0769 20.5068 18.0429 20.4222C13.0874 20.3396 8.75223 24.5458 8.66032 29.5211C8.56841 34.4964 12.7887 38.7623 17.8016 38.8084C22.8931 38.8584 27.0846 34.7924 27.1306 29.7614Z" fill="#202633"/>
<path d="M158.309 21.1721V46.1291H149.851V13.8053C150.45 13.7476 151.082 13.8264 151.716 13.8264C157.635 13.813 163.553 13.788 169.472 13.8264C176.143 13.8687 180.865 18.471 180.926 25.0669C180.988 31.8146 180.926 38.5624 180.909 45.3101C180.909 45.5447 180.892 45.2044 180.892 46.1464H172.519V37.407C172.519 33.6583 172.578 29.9095 172.49 26.1608C172.423 23.2617 170.904 21.3931 168.229 21.2259C165.005 21.024 161.767 21.1721 158.309 21.1721Z" fill="#202633"/>
<path d="M126.913 46.5156C117.431 46.4733 109.872 38.9047 109.992 29.5559C110.107 20.0629 117.559 12.7326 127.068 12.7576C136.52 12.7826 144.057 20.3262 144.007 29.7096C143.955 39.1219 136.394 46.5579 126.913 46.5156ZM136.223 29.8231C136.302 24.8132 132.202 20.555 127.179 20.4185C122.235 20.2859 117.849 24.4864 117.753 29.454C117.653 34.4523 121.785 38.7316 126.804 38.8105C131.877 38.8893 136.147 34.8214 136.223 29.8231Z" fill="#202633"/>
<path d="M102.226 36.2575L107.49 41.4347C101.621 47.9709 90.7598 48.267 84.0599 42.1498C77.0842 35.7846 76.5921 24.9363 82.9819 18.1944C89.7028 11.0987 100.366 10.8218 107.3 17.5369L101.82 22.837C99.6311 21.2664 96.8776 19.5862 93.7086 20.7685C91.6962 21.5182 89.5975 22.7082 88.1921 24.2827C85.2873 27.5508 85.6779 32.3569 88.6344 35.6981C92.0562 39.5699 96.5004 39.7794 102.226 36.2575Z" fill="#202633"/>
<path d="M56.7872 21.095H49.1892C49.1892 25.7646 48.9977 30.2419 49.2639 34.6924C49.4018 37.0493 51.1347 38.4969 53.5646 38.8698C54.6196 39.0313 55.6709 39.1793 56.8676 39.3543V46.0251C48.3639 48.5685 40.6587 43.0819 40.5917 34.4251C40.5285 25.0341 40.5783 15.643 40.5783 6.04232L48.969 4.59473V13.6898H56.7872V21.095Z" fill="#202633"/>
<path d="M64.3872 13.9224H72.5788V46.1635H64.3872V13.9224Z" fill="#202633"/>
<path d="M72.4715 8.19552H64.5231V1.99951L72.481 0.653809L72.4715 8.19552Z" fill="#202633"/>
</svg>
