<svg width="222" height="45" viewBox="0 0 222 45" fill="none" xmlns="http://www.w3.org/2000/svg">
<path d="M107.968 1.63757H120.051L132.07 30.0033L132.284 29.9628V1.6925H140.802V43.7626H128.994L116.599 15.2611L116.336 15.316V43.7655H107.968V1.63757Z" fill="#202633"/>
<path d="M33.0803 1.66647H42.5038V17.6574H53.8552V1.66357H63.3191V43.7597H53.9246V25.8176H42.5963V43.7395H33.0803V1.66647Z" fill="#202633"/>
<path d="M220.988 1.63184L207.717 21.2707L222 43.7974H209.859L198.829 24.884L198.612 24.9072V43.7656H189.073V1.68965H198.525V18.6287L198.794 18.6981L209.489 1.64339L220.988 1.63184Z" fill="#202633"/>
<path d="M184.642 43.8321H174.206L171.504 34.8972C171.061 34.8654 170.732 34.8191 170.4 34.8191H157.97C157.016 37.8138 156.074 40.7796 155.114 43.7974H145.439L159.025 1.66943H170.804C175.38 15.5994 179.979 29.616 184.642 43.8321ZM169.237 26.8237C167.812 21.3315 166.416 15.9318 165.017 10.5408L164.728 10.5726C163.219 15.9607 161.713 21.3488 160.181 26.8237H169.237Z" fill="#202633"/>
<path d="M9.45523 29.0552V43.7974H0V1.79375C0.0925 1.73304 0.170544 1.63477 0.2457 1.63477C5.15976 1.67523 10.0738 1.63477 14.9648 1.81688C16.572 1.87469 18.2052 2.31983 19.743 2.83436C23.6684 4.14382 26.0619 6.91016 26.9695 10.9455C27.5569 13.487 27.6247 16.121 27.169 18.6895C26.1341 24.488 21.9948 28.2285 15.8464 28.8876C14.3664 29.0437 12.8662 29.0119 11.3746 29.0552C10.8109 29.0697 10.2415 29.0552 9.45523 29.0552ZM9.55352 21.1783C10.9439 21.1176 12.2476 21.1783 13.5137 20.9788C16.1152 20.577 17.5201 19.0999 17.8496 16.4984C17.9576 15.5465 17.9323 14.5843 17.7745 13.6395C17.4594 11.6392 16.2482 10.2777 14.2884 9.86149C12.7737 9.54063 11.1838 9.57243 9.55641 9.4279L9.55352 21.1783Z" fill="#202633"/>
<path d="M73.2947 16.7902C73.2224 16.7902 69.9213 10.214 68.6494 7.28003C72.835 2.57987 77.9832 -0.039036 84.3484 0.813698C92.685 1.92659 97.8389 7.09214 100.221 14.8939C102.34 21.8314 101.444 28.6504 97.9286 35.004C95.3819 39.6001 91.5171 42.6208 86.3169 43.7886C85.9874 43.8638 85.655 43.9216 85.3225 43.9707C85.1375 43.9996 84.9439 43.9996 84.6028 44.0228C83.0852 40.5338 81.5589 37.0217 79.9778 33.3997C80.2668 33.3795 81.2901 33.4864 82.0446 33.3621C83.6026 33.1078 85.1636 32.9921 87.054 31.4919C91.3379 28.0925 93.4596 19.3802 88.5745 13.9198C82.6314 7.27136 75.1129 11.5726 73.2397 16.8249L73.2947 16.7902Z" fill="#202633"/>
<path d="M76.4021 34.134C81.3511 34.134 85.363 30.1221 85.363 25.1731C85.363 20.2241 81.3511 16.2122 76.4021 16.2122C71.4531 16.2122 67.4412 20.2241 67.4412 25.1731C67.4412 30.1221 71.4531 34.134 76.4021 34.134Z" fill="#202633"/>
</svg>
