<svg width="234" height="48" viewBox="0 0 234 48" fill="none" xmlns="http://www.w3.org/2000/svg">
<path d="M38.1458 11.654C40.4027 11.654 41.9503 11.8136 42.7076 12.6216C43.4523 13.4144 43.8297 15.1367 43.8601 17.885C40.6635 18.0192 34.5795 18.0091 31.5298 17.6925C31.7629 12.8115 32.0997 11.6514 38.1458 11.6514V11.654ZM28.7993 12.3809C28.1205 13.964 27.7152 16.6008 27.7152 19.4199C27.7152 24.0577 28.5435 26.8414 30.3951 28.4523C32.2948 30.1063 35.3697 30.3343 38.4092 30.3343C41.4488 30.3343 43.0926 30.0886 46.2993 29.6377L46.5501 29.6048L46.583 26.3753L46.4259 26.4032C46.3879 26.4108 42.3631 27.1073 38.237 27.1073C35.4508 27.1073 33.6043 26.6134 32.7456 25.6509C31.6539 24.4427 31.4792 22.6646 31.4716 20.9067C32.3581 20.9321 37.4645 21.084 40.2887 21.084C42.8697 21.084 47.3859 20.7522 47.4315 20.7497L47.5455 20.7421L47.5531 20.6281C47.5531 20.6079 47.662 18.66 47.662 17.9432C47.662 14.3617 47.1757 12.2112 46.0333 10.7497C44.4249 8.77658 41.0131 8.51062 37.8849 8.51062C34.0273 8.51062 30.2583 8.97921 28.7993 12.3835V12.3809ZM54.9594 2.31509C53.5815 3.65247 52.9381 5.7472 52.9381 8.90829C52.9381 12.4063 53.8297 14.4655 55.8282 15.58C57.6544 16.6033 60.3089 16.735 63.3813 16.8819L64.4806 16.9377C67.4213 17.0846 69.2754 17.2061 70.2911 17.8546C71.2081 18.4397 71.5297 19.4782 71.5297 21.8262C71.5297 23.8728 71.1143 25.0075 70.0986 25.7421C69.0829 26.4741 67.3428 26.8009 64.4604 26.8009C60.0227 26.8009 53.5637 25.9903 53.5637 25.9903L53.5435 29.6073C53.5435 29.6073 59.0703 30.3368 64.5059 30.3368C69.0095 30.3368 71.6336 29.7264 73.2825 28.2978C74.9213 26.8768 75.5926 24.7846 75.5926 21.084C75.5926 17.6013 74.6731 15.4407 72.6924 14.2781C70.9117 13.232 68.4573 13.0927 65.6154 12.9356L62.8418 12.7609L62.2947 12.7279C58.4092 12.4873 56.9528 12.3987 56.9528 8.94882C56.9528 6.9858 57.1402 5.68388 58.1002 4.83028C59.1032 3.93616 60.9979 3.53596 64.2425 3.53596C68.7157 3.53596 74.1387 4.21985 74.1387 4.21985V0.78014L74.0272 0.764943C73.9664 0.757344 68.009 0.0430597 64.1108 0.0430597C59.1438 0.0430597 56.6615 0.656027 54.9594 2.31003V2.31509ZM85.3595 26.0207C84.592 25.0101 84.4527 23.004 84.4527 19.4174C84.4527 15.8308 84.592 13.8323 85.3595 12.8191C86.1067 11.8313 87.6087 11.6514 90.3012 11.6514C92.9937 11.6514 94.4958 11.8313 95.2455 12.8191C96.0104 13.8323 96.1498 15.8358 96.1498 19.4174C96.1498 22.9989 96.0104 25.0101 95.2455 26.0207C94.4983 27.0086 92.9937 27.1884 90.3012 27.1884C87.6087 27.1884 86.1042 27.0086 85.3595 26.0207V26.0207ZM82.4036 10.6661C80.9117 12.3936 80.6103 15.2963 80.6103 19.4174C80.6103 23.5385 80.9117 26.4488 82.4036 28.1762C83.9512 29.967 86.6817 30.3343 90.3012 30.3343C93.9208 30.3343 96.6513 29.967 98.1989 28.1762C99.6908 26.4488 99.9897 23.5435 99.9897 19.4174C99.9897 15.2913 99.6908 12.3911 98.1989 10.6661C96.6513 8.87789 93.9233 8.50809 90.3012 8.50809C86.6792 8.50809 83.9487 8.87789 82.4036 10.6661V10.6661ZM120.147 8.76898C120.147 8.76898 120.139 26.2284 120.139 26.426C119.364 26.6261 117.087 27.1479 114.726 27.1479C110.251 27.1479 109.574 26.4564 109.574 21.8667V8.77404H105.866V22.3936C105.866 25.6788 106.35 27.4999 107.545 28.6752C108.741 29.8556 110.598 30.3368 113.938 30.3368C114.962 30.3368 116.418 30.1418 117.036 30.0582L117.282 30.0253C117.637 29.9822 118.034 29.8328 118.69 29.5567C119.364 29.2705 119.757 29.0096 119.772 29.002C119.959 28.8728 120.116 28.7664 120.268 28.7664C120.402 28.7664 120.443 28.7664 120.494 29.0602H120.499C120.499 29.0856 120.643 30.0303 120.643 30.0303H123.86L123.847 8.77151H120.147V8.76898ZM137.712 8.73352L137.289 8.77404C136.818 8.81457 135.653 9.37941 135.415 9.51872C135.099 9.70109 134.404 10.038 134.24 10.038C134.106 10.038 134.063 10.038 134.012 9.74162L133.862 8.77151H130.704V30.0329H134.412V12.348C135.261 12.1682 137.75 11.697 140.129 11.697C142.507 11.697 143.754 11.9427 144.402 12.6089C145.043 13.2674 145.278 14.4402 145.278 16.9351V30.0734H148.989V16.4083C148.989 13.1636 148.488 11.2918 147.315 10.1469C146.147 8.99947 144.23 8.51062 140.914 8.51062C139.954 8.51062 138.5 8.65753 137.712 8.73352V8.73352ZM159.589 25.6788C158.822 24.6301 158.526 22.8774 158.526 19.4225C158.526 15.9675 158.824 14.2097 159.605 13.1484C160.369 12.1099 161.646 11.697 164.156 11.697C166.023 11.697 168.3 11.9377 169.744 12.153V26.3399C168.928 26.5501 166.532 27.1073 164.156 27.1073C161.654 27.1073 160.331 26.6919 159.587 25.6762L159.589 25.6788ZM169.726 0C169.726 0 169.741 8.80191 169.746 9.10586C168.933 8.95895 166.221 8.51062 163.242 8.51062C159.8 8.51062 157.484 9.56685 156.16 11.73C154.86 13.8526 154.686 16.811 154.686 19.4199C154.686 22.0288 154.855 25.0709 156.129 27.1909C157.396 29.3059 159.61 30.3343 162.892 30.3343C164.513 30.3343 165.613 30.1722 166.266 30.0785L166.679 30.0227C167.168 29.9746 168.287 29.3844 168.356 29.349C168.52 29.2806 168.723 29.1843 168.926 29.083C169.182 28.9564 169.567 28.7689 169.658 28.7664C169.853 28.7664 169.883 28.7943 169.929 29.0602L170.078 30.0303H173.442L173.457 0H169.729H169.726ZM13.0522 3.4929C15.851 3.4929 17.4544 3.86271 18.2497 4.69604L18.2573 4.70364C19.1362 5.58256 19.2097 6.88448 19.2097 8.37891C19.2097 9.87333 19.1362 11.1322 18.2573 12.0086C17.4569 12.8495 15.851 13.2219 13.0522 13.2219H4.01722V3.4929H13.0522ZM0.0861194 0V30.0329H4.00962C4.00962 30.0329 4.01722 16.9301 4.01722 16.6768C4.26038 16.6768 10.1292 16.6768 10.2634 16.6768C10.3419 16.7907 19.2401 30.0354 19.2401 30.0354H24.0526L15.1114 16.7781C15.1114 16.7781 15.0684 16.6818 15.1925 16.6818C15.6357 16.6818 17.0567 16.5982 18.9133 15.9422C19.967 15.5673 20.7142 14.9772 21.3525 14.2958C22.6139 12.8951 23.2269 10.9752 23.2269 8.4245C23.2269 5.29127 22.5607 3.22188 21.1271 1.91236C19.696 0.610434 17.4366 0 14.0172 0H0.0861194V0ZM18.8449 4.12107C18.8449 4.12107 18.8475 4.12107 18.8475 4.1236L18.8424 4.11347C18.8424 4.11347 18.8424 4.116 18.8424 4.11853L18.8449 4.12107ZM2.49999 47.933H0.491387C0.220364 47.933 0 47.7127 0 47.4416V42.4417C0 42.1706 0.220364 41.9503 0.491387 41.9503H2.49999C2.77102 41.9503 2.99138 42.1706 2.99138 42.4417V47.4416C2.99138 47.7127 2.77102 47.933 2.49999 47.933ZM12.5734 47.933H10.2355C9.95185 47.933 9.72136 47.7025 9.72136 47.4188V42.467C9.72136 42.1833 9.95185 41.9528 10.2355 41.9528H12.5734C12.8571 41.9528 13.0876 42.1833 13.0876 42.467V47.4188C13.0876 47.7025 12.8571 47.933 12.5734 47.933ZM22.6469 47.933H19.9822C19.6859 47.933 19.4452 47.6924 19.4452 47.396V42.4898C19.4452 42.1934 19.6859 41.9528 19.9822 41.9528H22.6469C22.9432 41.9528 23.1838 42.1934 23.1838 42.4898V47.396C23.1838 47.6924 22.9432 47.933 22.6469 47.933ZM32.7203 47.933H29.7289C29.4199 47.933 29.1691 47.6823 29.1691 47.3733V42.5151C29.1691 42.2061 29.4199 41.9553 29.7289 41.9553H32.7203C33.0293 41.9553 33.2801 42.2061 33.2801 42.5151V47.3733C33.2801 47.6823 33.0293 47.933 32.7203 47.933ZM42.7937 47.933H39.4756C39.1539 47.933 38.8905 47.6721 38.8905 47.3479V42.5354C38.8905 42.2137 39.1514 41.9503 39.4756 41.9503H42.7937C43.1154 41.9503 43.3788 42.2112 43.3788 42.5354V47.3479C43.3788 47.6696 43.1179 47.933 42.7937 47.933ZM52.8672 47.933H49.2223C48.8879 47.933 48.6144 47.662 48.6144 47.3251V42.5607C48.6144 42.2238 48.8854 41.9528 49.2223 41.9528H52.8672C53.204 41.9528 53.4751 42.2238 53.4751 42.5607V47.3251C53.4751 47.662 53.204 47.933 52.8672 47.933ZM62.9406 47.933H58.9664C58.6169 47.933 58.3357 47.6493 58.3357 47.3023V42.5835C58.3357 42.234 58.6169 41.9528 58.9664 41.9528H62.9406C63.2901 41.9528 63.5713 42.2365 63.5713 42.5835V47.3023C63.5713 47.6519 63.2901 47.933 62.9406 47.933ZM73.014 47.933H68.7131C68.3509 47.933 68.0596 47.6392 68.0596 47.2795V42.6088C68.0596 42.2466 68.3535 41.9553 68.7131 41.9553H73.014C73.3762 41.9553 73.6675 42.2491 73.6675 42.6088V47.2795C73.6675 47.6417 73.3737 47.933 73.014 47.933ZM83.0875 47.933H78.4598C78.085 47.933 77.781 47.6291 77.781 47.2542V42.6291C77.781 42.2542 78.085 41.9503 78.4598 41.9503H83.0875C83.4623 41.9503 83.7663 42.2542 83.7663 42.6291V47.2542C83.7663 47.6291 83.4623 47.933 83.0875 47.933ZM93.1609 47.933H88.2065C87.819 47.933 87.5049 47.6189 87.5049 47.2314V42.6519C87.5049 42.2643 87.819 41.9503 88.2065 41.9503H93.1609C93.5484 41.9503 93.8625 42.2643 93.8625 42.6519V47.2314C93.8625 47.6189 93.5484 47.933 93.1609 47.933V47.933ZM103.234 47.933H97.976C97.5758 47.933 97.2516 47.6088 97.2516 47.2086V42.6772C97.2516 42.277 97.5758 41.9528 97.976 41.9528H103.234C103.635 41.9528 103.959 42.277 103.959 42.6772V47.2086C103.959 47.6088 103.635 47.933 103.234 47.933V47.933ZM208.087 47.933H108.713C107.981 47.933 107.388 47.3403 107.388 46.6083V43.2775C107.388 42.5455 107.981 41.9528 108.713 41.9528H208.085C208.817 41.9528 209.409 42.5455 209.409 43.2775V46.6083C209.409 47.3403 208.817 47.933 208.085 47.933H208.087ZM231.671 20.8232C231.22 20.8232 230.78 20.6484 230.448 20.3166L216.669 6.53747C216.464 6.33231 216.117 6.47922 216.117 6.76797V19.0374C216.117 19.9898 215.372 20.8054 214.42 20.8232C213.449 20.8409 212.659 20.0607 212.659 19.0957V1.86676C212.659 1.2614 212.95 0.67629 213.462 0.354609C214.146 -0.0785206 215.038 0.0202634 215.61 0.592704L229.389 14.3718C229.594 14.577 229.941 14.4326 229.941 14.1438V1.87183C229.941 0.919451 230.686 0.10385 231.636 0.0861194C232.606 0.0683889 233.396 0.848529 233.396 1.81357V19.0425C233.396 19.6656 233.087 20.2634 232.55 20.58C232.284 20.7396 231.978 20.8232 231.666 20.8232H231.671ZM207.469 8.72592H202.353C201.398 8.72592 200.577 9.47313 200.562 10.4255C200.547 11.3931 201.327 12.1808 202.289 12.1808H205.314C205.552 12.1808 205.747 12.3733 205.747 12.614V16.9351C205.747 17.1732 205.554 17.3683 205.314 17.3683H198.966C194.946 17.3683 191.707 14.078 191.932 10.0633C192.137 6.43362 195.154 3.54356 198.834 3.54356H207.413C208.368 3.54356 209.189 2.79635 209.204 1.84397C209.219 0.876391 208.439 0.0886523 207.477 0.0886523H198.991C193.429 0.0886523 188.736 4.40729 188.477 9.96199C188.199 15.9042 192.953 20.8257 198.834 20.8257H207.469C208.427 20.8257 209.202 20.0506 209.202 19.0932V10.461C209.202 9.50353 208.427 8.72845 207.469 8.72845" fill="#202633"/>
</svg>
