<svg width="157" height="45" viewBox="0 0 157 45" fill="none" xmlns="http://www.w3.org/2000/svg">
<path d="M56.9885 44.1179V38.7118C60.3681 38.4359 63.0563 37.0734 64.7927 34.1414C66.1643 31.8466 66.3179 29.3504 66.0683 26.4956C65.5745 26.7549 65.1548 26.8404 64.9546 27.0997C61.2486 31.8521 53.0439 31.7886 47.9471 27.9519C43.8324 24.8379 41.6379 20.6978 41.6078 15.5841C41.5913 10.7269 43.827 6.7578 47.6262 3.86443C54.6514 -1.51133 64.3593 0.226347 69.1982 7.65147C70.8405 10.1874 71.7215 13.1454 71.7356 16.1716C71.7877 20.3724 71.8371 24.5759 71.7356 28.7739C71.5299 36.8141 66.1232 42.7884 58.6262 44.1068C58.0814 44.1529 57.5339 44.1566 56.9885 44.1179V44.1179ZM47.9362 15.6475C47.9197 20.7365 51.623 24.5097 56.6429 24.5152C57.7809 24.5287 58.9103 24.3156 59.966 23.8883C61.0218 23.461 61.983 22.8279 62.7943 22.0254C63.6057 21.2229 64.2511 20.267 64.6934 19.2126C65.1357 18.1583 65.3662 17.0263 65.3715 15.882C65.4127 10.9751 61.7396 7.38392 57.0214 7.05569C51.6888 6.69988 47.618 11.4937 47.9307 15.6475H47.9362Z" fill="#202633"/>
<path d="M156.131 30.0591H150.644C150.584 28.9558 150.529 27.9325 150.463 26.6665C149.939 26.981 149.511 27.1327 149.229 27.425C145.435 31.3445 139.576 31.6368 135.077 29.433C129.182 26.5424 126.187 21.71 126.195 15.1234C126.195 12.2797 127.215 9.68692 128.845 7.3645C131.774 3.19131 135.801 0.954398 140.901 0.761322C148.033 0.4855 154.37 5.89438 155.818 12.5527C155.94 12.9425 156.024 13.3435 156.068 13.7498C156.103 18.2733 156.111 22.794 156.128 27.3175C156.133 28.1808 156.131 29.0413 156.131 30.0591ZM141.224 7.11626C136.493 6.64737 132.411 11.1102 132.463 15.6998C132.523 20.7998 136.35 24.4737 141.277 24.5013C142.427 24.5063 143.566 24.2803 144.628 23.8367C145.69 23.3931 146.654 22.7407 147.462 21.9179C148.27 21.0951 148.906 20.1183 149.334 19.0449C149.762 17.9715 149.972 16.823 149.953 15.6667C149.865 9.87448 145.024 6.777 141.224 7.11626Z" fill="#202633"/>
<path d="M104.881 30.0782H98.61C98.5798 29.5707 98.5249 29.0908 98.5249 28.6109C98.5249 23.544 98.4015 18.4744 98.5634 13.4131C98.6703 10.0674 95.5459 7.05262 92.1993 7.01952C88.4742 6.98643 85.5747 10.2384 85.6734 13.3883C85.8298 18.4027 85.7146 23.4282 85.7146 28.4481V30.0396H79.4849C79.4411 29.5597 79.3615 29.0825 79.3587 28.6053C79.3587 23.7205 79.2545 18.8357 79.378 13.9537C79.5508 7.14088 83.7094 2.06576 90.5589 0.802495C95.7188 -0.146332 101.948 3.56072 103.742 8.64963C104.405 10.5715 104.774 12.5828 104.84 14.6157C104.996 19.2191 104.889 23.8336 104.889 28.4426L104.881 30.0782Z" fill="#202633"/>
<path d="M20.653 1.2386V7.85833C19.8301 7.85833 19.0647 7.84178 18.3104 7.85833C15.7126 7.91901 14.1957 9.43603 14.1655 12.0536C14.1161 15.0628 14.1655 18.0748 14.0338 21.0812C13.8336 25.8392 9.27176 30.1834 4.52066 30.2247C3.39049 30.2247 2.26032 30.2247 0.95459 30.2247V23.7015C1.84611 23.7015 2.64709 23.7015 3.45083 23.7015C5.89222 23.6602 7.5189 22.0301 7.53536 19.5642C7.5573 16.8722 7.53536 14.1802 7.53536 11.4881C7.55762 8.7736 8.64088 6.1768 10.5512 4.25856C12.4615 2.34032 15.0456 1.25458 17.7453 1.23584L20.653 1.2386Z" fill="#202633"/>
<path d="M27.8428 30.117V1.35425H34.3001V30.117H27.8428Z" fill="#202633"/>
<path d="M119.521 30.0869H113.398V1.40137H119.521V30.0869Z" fill="#202633"/>
</svg>
