<svg width="206" height="58" viewBox="0 0 206 58" fill="none" xmlns="http://www.w3.org/2000/svg">
<path d="M29.907 0C39.9408 0.56291 52.9354 0.777245 55.1402 13.1764C50.3688 13.6094 42.7615 11.5028 40.6191 17.1752C39.6308 20.3968 38.7889 23.6704 38.0654 26.9699C37.7769 28.8426 35.8713 28.7928 35.4816 27.0088C34.532 23.2482 33.5889 19.481 32.7405 15.6987C32.1936 13.0812 29.5366 13.053 27.2973 13.1786C25.4369 13.1786 24.3367 14.0208 23.8866 15.8221C22.9952 19.4507 22.164 23.0944 21.2683 26.723C21.2037 28.2234 19.2034 29.1457 18.719 27.3726C17.9998 24.2592 17.2677 21.1437 16.4107 18.0629C14.6882 11.4271 6.68906 13.6462 1.54077 13.1786C3.82101 -0.125573 19.4101 0.264135 29.907 0Z" fill="#202633"/>
<path d="M56.2815 21.3604C56.681 26.0149 56.7658 30.6913 56.5356 35.3574C56.3482 38.7283 55.952 42.0928 55.08 45.3793C53.8505 50.0017 51.0083 53.115 46.5727 54.8211C44.0556 55.7561 41.4369 56.3869 38.7717 56.7003C34.507 57.2726 30.2019 57.4833 25.9021 57.3303C21.3933 57.1506 16.8888 56.8605 12.5092 55.62C10.1106 54.9423 7.8454 54.0027 5.8903 52.3984C3.28709 50.2593 2.01454 47.3798 1.30398 44.1712C0.6408 41.1402 0.352286 38.0637 0.134814 34.972C-0.168787 30.6419 0.0982263 26.3313 0.367376 22.0164C0.378142 21.8411 0.412574 21.6678 0.455638 21.3539H2.80906C3.88566 21.3539 4.96226 21.3409 6.03885 21.3539C7.40398 21.3734 8.09949 21.9082 8.38587 23.2418C9.53352 28.5462 10.6575 33.8505 11.7922 39.1657C12.0937 40.573 12.3844 41.9802 12.7052 43.3832C13.2435 45.7431 14.8067 46.9706 17.2462 46.9728C18.4671 46.9728 19.688 46.9728 20.9067 46.9728C22.9113 46.9577 24.5434 45.7431 24.9676 43.7772C25.5361 41.1445 25.9861 38.4837 26.4749 35.8337C26.6342 34.985 26.7699 34.1341 26.9184 33.2833C27.1014 32.2506 27.5084 31.8305 28.3287 31.8305C29.1491 31.8305 29.4979 32.1445 29.6982 33.1815C30.2795 36.2126 30.8286 39.2588 31.3884 42.3007C31.6231 43.5759 31.8191 44.8576 32.8634 45.8037C33.6708 46.5333 34.5687 46.975 35.6625 46.975C37.0276 46.975 38.3906 46.988 39.7536 46.975C40.732 46.9877 41.6839 46.6556 42.4442 46.0363C43.2045 45.417 43.7251 44.5495 43.9157 43.5845C45.0052 38.6049 46.0689 33.6015 47.1455 28.6111C47.5288 26.8163 47.8841 25.0172 48.2781 23.2245C48.5752 21.8779 49.2341 21.3647 50.6337 21.3561C52.4897 21.3518 54.3501 21.3604 56.2815 21.3604Z" fill="#202633"/>
<path d="M140.39 13.2066C145.878 13.2066 151.371 13.2499 156.855 13.185C158.793 13.1611 159.63 14.2328 159.512 15.8653C159.443 16.7984 159.501 17.7402 159.499 18.6798C159.499 20.5504 158.834 21.2324 156.993 21.2324H132.778C132.526 21.2324 132.276 21.2324 132.024 21.2324C130.948 21.267 130.614 21.5788 130.545 22.6483C130.509 23.2221 130.524 23.8023 130.545 24.3804C130.58 25.7357 130.86 26.0085 132.199 26.0085H156.53C156.818 26.0085 157.107 25.9912 157.391 26.0085C158.713 26.1146 159.49 26.9243 159.512 28.2515C159.534 29.4401 159.529 30.633 159.512 31.8216C159.49 33.2678 158.761 34.0278 157.337 34.0494C155.796 34.0754 154.252 34.0494 152.71 34.0494H132.685C132.362 34.0494 132.039 34.0494 131.719 34.0667C131.045 34.11 130.631 34.4998 130.595 35.1493C130.55 36.0474 130.556 36.9473 130.612 37.8447C130.653 38.5159 131.083 38.8645 131.762 38.8775C132.048 38.8775 132.334 38.8775 132.623 38.8775C140.551 38.8775 148.479 38.9186 156.407 38.8536C158.776 38.832 159.669 39.6114 159.516 41.9431C159.462 42.768 159.516 43.6016 159.516 44.4308C159.506 46.1845 158.771 46.9292 157.027 46.9292C148.346 46.9292 139.661 46.9292 130.974 46.9292C128.534 46.9292 126.092 46.8751 123.653 46.9509C122.264 46.9942 121.209 46.0113 121.215 44.4676C121.261 34.8375 121.237 25.1988 121.241 15.5752C121.241 13.9579 121.988 13.1936 123.61 13.1936C129.199 13.2023 134.793 13.2066 140.39 13.2066Z" fill="#202633"/>
<path d="M75.7549 30.0356C75.7549 25.3115 75.7549 20.5867 75.7549 15.8611C75.7549 13.839 76.3708 13.2111 78.3625 13.2111C87.1906 13.2111 96.0187 13.2891 104.832 13.1808C110.144 13.1137 113.832 16.0625 115.608 20.5419C116.424 22.6176 116.909 24.8095 117.045 27.037C117.292 30.893 117.232 34.7467 116.013 38.4793C115.18 41.0253 113.914 43.2856 111.722 44.9202C109.993 46.2339 107.884 46.9419 105.717 46.9359C96.5297 46.9575 87.3477 46.9575 78.1708 46.9359C76.4676 46.9359 75.7571 46.2258 75.7549 44.5175C75.7506 39.6953 75.7506 34.868 75.7549 30.0356ZM94.0442 38.8949C96.4493 38.8949 98.8523 38.8949 101.257 38.8949C104.285 38.8949 106.326 37.4379 107.192 34.5497C108.082 31.6371 108.082 28.5229 107.192 25.6103C106.33 22.7243 104.246 21.2412 101.264 21.2391C96.4536 21.2391 91.6448 21.2391 86.8374 21.2391C85.3582 21.2391 85.0525 21.5379 85.0503 22.9841C85.0503 27.7111 85.0503 32.4381 85.0503 37.1651C85.0503 38.607 85.3259 38.8971 86.7276 38.8971C89.165 38.8993 91.6046 38.8949 94.0442 38.8949V38.8949Z" fill="#202633"/>
<path d="M199.622 46.951C198.545 46.951 197.469 46.8947 196.392 46.9662C195.027 47.0571 194.004 46.5332 193.07 45.5633C190.824 43.2293 188.518 40.9539 186.227 38.6676C185.909 38.3307 185.547 38.0393 185.15 37.8016C184.859 37.6182 184.518 37.5326 184.175 37.5571C183.833 37.5816 183.507 37.715 183.245 37.938C182.912 38.2095 182.593 38.4986 182.291 38.804C180.004 41.0968 177.707 43.3787 175.448 45.6997C175.062 46.1247 174.588 46.4587 174.059 46.6777C173.53 46.8967 172.96 46.9952 172.388 46.9662C170.129 46.9012 167.866 46.9467 165.606 46.9467C165.39 46.9467 165.175 46.9467 164.96 46.9467C164.245 46.9207 163.575 46.754 163.263 46.0352C162.936 45.2818 163.205 44.6215 163.754 44.0694C165.453 42.359 167.156 40.6522 168.861 38.9491C171.303 36.5069 173.76 34.0799 176.182 31.6204C177.153 30.6353 177.166 29.5615 176.182 28.5677C172.593 24.9326 168.973 21.3278 165.364 17.7101C164.781 17.1255 164.191 16.5453 163.629 15.9391C163.123 15.3913 162.957 14.731 163.28 14.0425C163.573 13.4211 164.167 13.2219 164.807 13.2198C167.57 13.2097 170.333 13.2097 173.094 13.2198C174.1 13.2198 174.832 13.813 175.504 14.4885L182.28 21.2997C182.456 21.4772 182.629 21.6612 182.814 21.8345C183.867 22.8239 184.87 22.8239 185.932 21.815C186.481 21.2954 187.008 20.7454 187.534 20.2107C189.472 18.2621 191.409 16.3461 193.313 14.3867C193.677 13.99 194.122 13.6774 194.618 13.4707C195.114 13.264 195.649 13.168 196.185 13.1895C198.517 13.2284 200.849 13.2003 203.181 13.2025C203.504 13.1912 203.827 13.2027 204.148 13.2371C205.414 13.4211 205.937 14.5361 205.263 15.6186C205.044 15.9474 204.789 16.2496 204.501 16.5193C200.69 20.3384 196.874 24.1546 193.055 27.968C192.878 28.1455 192.693 28.3187 192.523 28.5028C191.543 29.5723 191.511 30.6115 192.523 31.6486C194.153 33.3265 195.828 34.9567 197.475 36.6087C199.945 39.0725 202.427 41.5276 204.878 44.0109C205.674 44.8163 205.789 45.5676 205.308 46.2279C204.917 46.767 204.346 46.9424 203.709 46.9424L199.622 46.951Z" fill="#202633"/>
<path d="M71.0029 30.042C71.0029 34.8051 71.0029 39.5682 71.0029 44.3313C71.0029 45.0761 70.8996 45.771 70.357 46.3253C70.142 46.5432 69.8833 46.7126 69.5982 46.8224C69.3131 46.9321 69.0081 46.9796 68.7033 46.9618C67.1616 46.9423 65.6178 46.9618 64.074 46.9618C62.3321 46.9618 61.585 46.2127 61.585 44.459C61.585 37.8932 61.585 31.3259 61.585 24.7572C61.585 21.7637 61.585 18.7694 61.585 15.7744C61.585 13.9601 62.3235 13.2262 64.1278 13.2175C65.5274 13.2175 66.9269 13.2175 68.3265 13.2175C70.2751 13.2175 70.9965 13.932 70.9986 15.8697C71.0044 20.5895 71.0058 25.3136 71.0029 30.042Z" fill="#202633"/>
</svg>
